<?xml version="1.0" encoding="iso-8859-1"?>
<!-- Generator: Adobe Illustrator 19.0.0, SVG Export Plug-In . SVG Version: 6.00 Build 0)  -->
<svg version="1.1" id="Capa_1" xmlns="http://www.w3.org/2000/svg" xmlns:xlink="http://www.w3.org/1999/xlink" x="0px" y="0px"
	 viewBox="0 0 512 512" style="enable-background:new 0 0 512 512;" xml:space="preserve">
<path style="fill:#303C42;" d="M282.458,22.75C276.729,8.365,267.146,0,256,0c-11.146,0-20.729,8.365-26.458,22.75
	C167.5,28.292,117.333,43.177,117.333,138.667c0,61.156,47.333,201.958,67.667,259.646c3.253,9.257,9.686,16.6,17.667,21.594v51.26
	c0,8.542,3.333,16.583,9.375,22.625l8.833,8.833c5.958,5.958,14.208,9.375,22.625,9.375h25c8.417,0,16.667-3.417,22.625-9.375
	l8.833-8.833c6.042-6.042,9.375-14.083,9.375-22.625v-51.259c7.98-4.992,14.414-12.335,17.667-21.585
	c20.333-57.698,67.667-198.5,67.667-259.656C394.667,43.177,344.5,28.292,282.458,22.75z"/>
<path style="fill:#DFE1DF;" d="M288,471.167c0,2.802-1.146,5.552-3.125,7.542l-8.833,8.833c-1.979,1.99-4.729,3.125-7.542,3.125h-25
	c-2.813,0-5.563-1.135-7.542-3.125l-8.833-8.833c-1.979-1.99-3.125-4.74-3.125-7.542v-1.833h64V471.167z"/>
<path style="opacity:0.2;fill:#FFFFFF;enable-background:new    ;" d="M242.639,487.542l-5.889-8.833
	c-1.319-1.99-2.083-4.74-2.083-7.542v-1.833H224v1.833c0,2.802,1.146,5.552,3.125,7.542l8.833,8.833
	c1.979,1.99,4.729,3.125,7.542,3.125h4.167C245.792,490.667,243.958,489.531,242.639,487.542z"/>
<path style="opacity:0.1;enable-background:new    ;" d="M277.333,469.333v1.833c0,2.802-0.764,5.552-2.083,7.542l-5.889,8.833
	c-1.319,1.99-3.152,3.125-5.027,3.125h4.167c2.813,0,5.563-1.135,7.542-3.125l8.833-8.833c1.979-1.99,3.125-4.74,3.125-7.542v-1.833
	H277.333z"/>
<path style="fill:#DFE1DF;" d="M288,448h-64v-21.52c0.409,0.012,0.777,0.186,1.188,0.186h61.625c0.41,0,0.779-0.174,1.188-0.186V448
	z"/>
<linearGradient id="SVGID_1_" gradientUnits="userSpaceOnUse" x1="-36.3515" y1="626.174" x2="-35.5535" y2="625.803" gradientTransform="matrix(21.3333 0 0 -21.3333 996.3334 13791.667)">
	<stop  offset="0" style="stop-color:#FFFFFF;stop-opacity:0.2"/>
	<stop  offset="1" style="stop-color:#FFFFFF;stop-opacity:0"/>
</linearGradient>
<polygon style="fill:url(#SVGID_1_);" points="234.667,448 224,448 224,426.48 224.198,426.667 234.469,426.667 234.667,426.48 "/>
<polygon style="opacity:0.1;enable-background:new    ;" points="288,448 277.333,448 277.333,426.48 277.531,426.667 
	287.802,426.667 288,426.48 "/>
<path style="fill:#FAFAFA;" d="M306.875,391.229c-2.958,8.438-11.021,14.104-20.063,14.104h-61.625
	c-9.042,0-17.104-5.667-20.063-14.115c-15.583-44.198-66.458-193.063-66.458-252.552c0-81.531,37.625-90.365,99.583-95.24
	c4.479-0.354,8.25-3.469,9.458-7.792c2.958-10.729,7.375-14.302,8.292-14.302c0.917,0,5.333,3.573,8.292,14.302
	c1.208,4.323,4.979,7.438,9.458,7.792c61.958,4.875,99.583,13.708,99.583,95.24C373.333,198.156,322.458,347.021,306.875,391.229z"
	/>
<path style="opacity:0.1;enable-background:new    ;" d="M273.75,43.427c-4.479-0.354-8.25-3.469-9.458-7.792
	c-2.958-10.729-7.375-14.302-8.292-14.302c0.75,0,4.363,3.573,6.784,14.302c0.988,4.323,4.074,7.438,7.738,7.792
	C321.216,48.302,352,57.135,352,138.667c0,59.49-41.625,208.354-54.375,252.563c-2.421,8.438-9.017,14.104-16.415,14.104h5.603
	c9.042,0,17.104-5.667,20.063-14.104c15.583-44.208,66.458-193.073,66.458-252.563C373.333,57.135,335.708,48.302,273.75,43.427z"/>
<path style="opacity:0.2;fill:#FFFFFF;enable-background:new    ;" d="M247.708,35.635c-1.208,4.323-4.979,7.438-9.458,7.792
	c-61.958,4.875-99.583,13.708-99.583,95.24c0,59.49,50.875,208.354,66.458,252.552c2.958,8.448,11.021,14.115,20.063,14.115h5.603
	c-7.398,0-13.995-5.667-16.415-14.115C201.625,347.021,160,198.156,160,138.667c0-81.531,30.784-90.365,81.478-95.24
	c3.664-0.354,6.75-3.469,7.738-7.792c2.421-10.729,6.034-14.302,6.784-14.302C255.083,21.333,250.667,24.906,247.708,35.635z"/>
<path style="fill:#E4AA17;" d="M302.188,248.021l-35.521-12.457v-14.758l35.521-12.431c4.292-1.5,7.146-5.542,7.146-10.073
	c0-4.542-2.875-8.573-7.146-10.073l-35.521-12.398v-14.673l35.521-12.418c5.563-1.948,8.5-8.031,6.542-13.594
	c-1.917-5.563-8.021-8.51-13.583-6.552l-28.479,9.96V96c0-5.896-4.771-10.667-10.667-10.667c-5.896,0-10.667,4.771-10.667,10.667
	v50.014l-35.521,12.423c-4.271,1.5-7.146,5.542-7.146,10.073c0,4.542,2.875,8.573,7.146,10.073l35.521,12.398v14.681l-35.521,12.431
	c-4.271,1.5-7.146,5.542-7.146,10.073s2.854,8.563,7.146,10.063l35.521,12.46v14.789l-35.521,12.46
	c-5.563,1.948-8.5,8.031-6.542,13.594c1.542,4.385,5.667,7.135,10.063,7.135c1.167,0,2.354-0.188,3.521-0.604l28.479-9.984v117.255
	h21.333V280.599l35.521-12.453c4.292-1.5,7.146-5.531,7.146-10.063S306.479,249.521,302.188,248.021z"/>
<linearGradient id="SVGID_2_" gradientUnits="userSpaceOnUse" x1="-42.8927" y1="638.204" x2="-28.6967" y2="631.5858" gradientTransform="matrix(21.3333 0 0 -21.3333 996.3334 13791.667)">
	<stop  offset="0" style="stop-color:#FFFFFF;stop-opacity:0.2"/>
	<stop  offset="1" style="stop-color:#FFFFFF;stop-opacity:0"/>
</linearGradient>
<path style="fill:url(#SVGID_2_);" d="M282.458,22.75C276.729,8.365,267.146,0,256,0c-11.146,0-20.729,8.365-26.458,22.75
	C167.5,28.292,117.333,43.177,117.333,138.667c0,61.156,47.333,201.958,67.667,259.646c3.253,9.257,9.686,16.6,17.667,21.594v51.26
	c0,8.542,3.333,16.583,9.375,22.625l8.833,8.833c5.958,5.958,14.208,9.375,22.625,9.375h25c8.417,0,16.667-3.417,22.625-9.375
	l8.833-8.833c6.042-6.042,9.375-14.083,9.375-22.625v-51.259c7.98-4.992,14.414-12.335,17.667-21.585
	c20.333-57.698,67.667-198.5,67.667-259.656C394.667,43.177,344.5,28.292,282.458,22.75z"/>
<g>
</g>
<g>
</g>
<g>
</g>
<g>
</g>
<g>
</g>
<g>
</g>
<g>
</g>
<g>
</g>
<g>
</g>
<g>
</g>
<g>
</g>
<g>
</g>
<g>
</g>
<g>
</g>
<g>
</g>
</svg>
